<svg width="258" height="218" fill="none" xmlns="http://www.w3.org/2000/svg"><path d="M25.6 161.776v-17.664h66.56v17.664H25.6zM73.344 86l44.928 96H95.104L55.808 94.832h7.168L23.68 182H.512L45.44 86h27.904zm88.503.451c.031 5.12 1.038 9.509 3.023 13.167 1.984 3.657 4.86 6.499 8.626 8.524 3.852 1.94 8.466 2.894 13.842 2.862 5.461-.033 10.063-1.041 13.806-3.026 3.742-2.071 6.584-4.946 8.525-8.627 1.94-3.681 2.896-8.082 2.865-13.202l-.321-53.887 21.76-.13.327 54.912c.051 8.618-1.866 16.182-5.753 22.69-3.887 6.424-9.361 11.448-16.423 15.074-7.061 3.627-15.285 5.468-24.671 5.524-9.387.055-17.632-1.687-24.736-5.229-7.018-3.542-12.552-8.502-16.601-14.878-3.964-6.461-5.971-14.002-6.022-22.62l-.328-54.911 21.76-.13.321 53.887zM71.788 21.526l7.522-3.351L166.5 213.88l-7.523 3.352z" fill="#00FFEA"/></svg>