<svg width="48" height="48" fill="none" xmlns="http://www.w3.org/2000/svg"><path d="M24 28.275a4.275 4.275 0 100-8.55 4.275 4.275 0 000 8.55z" fill="#61DAFB"/><path d="M40.237 16.95c-.825-.3-1.687-.6-2.587-.863.225-.9.413-1.8.563-2.662.787-4.95-.075-8.438-2.476-9.788-.712-.412-1.5-.6-2.4-.6-2.625 0-5.962 1.95-9.337 5.213-3.375-3.263-6.712-5.213-9.338-5.213-.9 0-1.687.188-2.4.6C9.862 5.025 9 8.512 9.788 13.425c.15.862.337 1.762.562 2.662-.9.263-1.762.526-2.587.863C3.075 18.75.525 21.225.525 24c0 2.775 2.588 5.25 7.238 7.05.825.3 1.687.6 2.587.863-.225.9-.412 1.8-.562 2.662-.788 4.95.075 8.438 2.474 9.787.713.413 1.5.6 2.4.6 2.663 0 6-1.95 9.338-5.212 3.375 3.263 6.712 5.212 9.337 5.212.9 0 1.688-.187 2.4-.6 2.4-1.387 3.263-4.875 2.475-9.787a37.617 37.617 0 00-.562-2.663c.9-.262 1.763-.524 2.587-.862 4.688-1.8 7.238-4.275 7.238-7.05 0-2.775-2.55-5.25-7.238-7.05zm-5.55-11.438c1.538.9 2.063 3.675 1.425 7.613-.112.787-.3 1.613-.525 2.475-1.95-.45-4.012-.75-6.187-.938a54.11 54.11 0 00-3.9-4.875c2.775-2.737 5.587-4.612 7.875-4.612.487 0 .938.112 1.313.337zm-4.2 22.238c-.674 1.2-1.462 2.4-2.287 3.6a51.77 51.77 0 01-4.2.15 50.79 50.79 0 01-4.2-.15c-.825-1.2-1.575-2.4-2.25-3.6A60.417 60.417 0 0115.562 24a60.417 60.417 0 011.988-3.75c.675-1.2 1.462-2.4 2.287-3.6a51.77 51.77 0 014.2-.15c1.463 0 2.85.038 4.2.15.826 1.2 1.576 2.4 2.25 3.6A60.417 60.417 0 0132.476 24c-.638 1.238-1.275 2.475-1.988 3.75zm3.113-1.238a44.24 44.24 0 011.425 3.863c-1.275.3-2.625.525-4.05.712.45-.712.938-1.462 1.35-2.25.45-.787.862-1.575 1.275-2.325zM24 36.675a42.162 42.162 0 01-2.587-3.112c.862.037 1.724.075 2.587.075.863 0 1.725-.038 2.587-.075A42.162 42.162 0 0124 36.675zm-6.975-5.625c-1.425-.188-2.775-.413-4.05-.713.412-1.237.863-2.55 1.425-3.862.412.75.825 1.537 1.275 2.287.45.825.9 1.538 1.35 2.288zM14.4 21.487a44.24 44.24 0 01-1.425-3.862c1.275-.3 2.625-.525 4.05-.712-.45.712-.938 1.462-1.35 2.25-.45.787-.863 1.575-1.275 2.325zM24 11.325c.9.975 1.762 2.025 2.587 3.113A59.595 59.595 0 0024 14.363c-.863 0-1.725.037-2.587.075A42.162 42.162 0 0124 11.325zm8.325 7.875l-1.35-2.25c1.425.188 2.775.413 4.05.713-.413 1.237-.862 2.55-1.425 3.862-.413-.787-.825-1.575-1.275-2.325zm-20.438-6.075c-.637-3.938-.112-6.713 1.425-7.613.376-.225.825-.337 1.313-.337 2.25 0 5.063 1.837 7.875 4.612-1.313 1.425-2.625 3.075-3.9 4.875a50.984 50.984 0 00-6.188.938c-.225-.862-.375-1.688-.525-2.475zM2.625 24c0-1.762 2.138-3.637 5.888-5.025.75-.3 1.575-.563 2.4-.788.6 1.875 1.35 3.863 2.25 5.85-.9 1.988-1.688 3.938-2.25 5.813-5.175-1.5-8.288-3.75-8.288-5.85zm10.688 18.487c-1.538-.9-2.063-3.675-1.426-7.612.113-.788.3-1.612.525-2.475 1.95.45 4.013.75 6.188.938a54.106 54.106 0 003.9 4.874c-2.775 2.738-5.587 4.613-7.875 4.613-.488 0-.938-.113-1.313-.338zm22.8-7.612c.637 3.938.112 6.712-1.425 7.612a2.54 2.54 0 01-1.313.338c-2.25 0-5.063-1.838-7.875-4.613 1.313-1.425 2.625-3.075 3.9-4.875a50.984 50.984 0 006.188-.937c.224.863.374 1.688.524 2.475zm3.374-5.85c-.75.3-1.575.563-2.4.788a54.659 54.659 0 00-2.25-5.85c.9-1.988 1.688-3.938 2.25-5.813 5.175 1.5 8.288 3.75 8.288 5.85 0 1.762-2.175 3.637-5.888 5.025z" fill="#61DAFB"/></svg>